<?xml version="1.0" encoding="UTF-8"?>
<svg version="1.1" xmlns="http://www.w3.org/2000/svg" width="85" height="85">
<path d="M0 0 C28.05 0 56.1 0 85 0 C85 28.05 85 56.1 85 85 C56.95 85 28.9 85 0 85 C0 56.95 0 28.9 0 0 Z " fill="#FDFDFD" transform="translate(0,0)"/>
<path d="M0 0 C1.86458222 0.90332161 3.72131181 1.82301132 5.5703125 2.7578125 C6.5190625 3.21800781 7.4678125 3.67820312 8.4453125 4.15234375 C15.36607143 7.55357143 15.36607143 7.55357143 17.6953125 9.8828125 C18.28233436 13.62882168 18.25109004 17.40884377 18.3203125 21.1953125 C18.37832031 22.24138672 18.43632813 23.28746094 18.49609375 24.36523438 C18.62028399 31.86919068 18.62028399 31.86919068 16.13378906 34.59399414 C14.04441415 35.92638964 11.97583908 36.91747454 9.6953125 37.8828125 C8.43211155 38.55075032 7.1715509 39.22371242 5.9140625 39.90234375 C4.6770449 40.50529258 3.43746013 41.10300421 2.1953125 41.6953125 C1.27685547 42.16227539 1.27685547 42.16227539 0.33984375 42.63867188 C-4.83239786 45.10551667 -9.80574264 46.0834226 -15.33886719 44.18481445 C-17.42462359 43.25122589 -19.42199491 42.22369749 -21.4296875 41.1328125 C-22.44482422 40.61074219 -22.44482422 40.61074219 -23.48046875 40.078125 C-24.81361542 39.38189753 -26.13477538 38.66215661 -27.44189453 37.91821289 C-29.16016327 36.96314373 -30.95024054 36.14044368 -32.7421875 35.33203125 C-35.72323613 32.48276678 -35.79036802 31.61568014 -36.171875 27.63671875 C-36.20637751 25.57320345 -36.20779863 23.50892477 -36.1796875 21.4453125 C-36.21964844 20.40826172 -36.25960937 19.37121094 -36.30078125 18.30273438 C-36.29131693 10.93476465 -36.29131693 10.93476465 -33.70800781 8.18041992 C-31.62973402 6.86178583 -29.56170371 5.86021486 -27.3046875 4.8828125 C-26.11178224 4.21926093 -24.92388104 3.54659964 -23.7421875 2.86328125 C-22.6078125 2.27160156 -21.4734375 1.67992187 -20.3046875 1.0703125 C-19.1703125 0.46574219 -18.0359375 -0.13882812 -16.8671875 -0.76171875 C-10.38769717 -3.22705114 -6.18487667 -2.71209381 0 0 Z " fill="#C9C9C9" transform="translate(51.3046875,21.1171875)"/>
<path d="M0 0 C2.73499878 1.36885543 5.3345484 2.8589752 7.9465332 4.44921875 C8.85081055 4.97386719 9.75508789 5.49851562 10.68676758 6.0390625 C12.89084369 7.32185812 15.07984673 8.62473451 17.2590332 9.94921875 C17.2590332 10.93921875 17.2590332 11.92921875 17.2590332 12.94921875 C5.3449707 18.90625 5.3449707 18.90625 3.22680664 19.95166016 C1.51491152 20.81950178 -0.160091 21.759377 -1.8269043 22.7109375 C-5.97026572 24.4715884 -9.40020992 24.80226086 -13.69848633 23.23583984 C-15.7793479 22.27431742 -17.78938494 21.23095352 -19.8034668 20.13671875 C-20.48473633 19.78029297 -21.16600586 19.42386719 -21.86791992 19.05664062 C-23.20099053 18.35873142 -24.5313509 17.65561533 -25.85864258 16.94677734 C-28.46258568 15.56678882 -31.09947347 14.25554228 -33.7409668 12.94921875 C-33.7409668 11.62921875 -33.7409668 10.30921875 -33.7409668 8.94921875 C-30.65618268 7.24476787 -27.54573509 5.59339447 -24.4284668 3.94921875 C-23.13585937 3.23378906 -23.13585937 3.23378906 -21.81713867 2.50390625 C-14.54440598 -1.28115909 -7.90456133 -3.0303048 0 0 Z " fill="#FAFAFA" transform="translate(50.740966796875,22.05078125)"/>
</svg>
